<?xml version="1.0" standalone="no"?><!DOCTYPE svg PUBLIC "-//W3C//DTD SVG 1.1//EN" "http://www.w3.org/Graphics/SVG/1.1/DTD/svg11.dtd"><svg t="1512112624477" class="icon" style="" viewBox="0 0 1024 1024" version="1.1" xmlns="http://www.w3.org/2000/svg" p-id="2309" xmlns:xlink="http://www.w3.org/1999/xlink" width="32" height="32"><defs><style type="text/css"></style></defs><path d="M528.436457 390.99354c-57.516086 0-104.240998 46.724912-104.240998 104.242021 0 57.61535 46.724912 104.239974 104.240998 104.239974 57.617397 0 104.291142-46.624624 104.291142-104.239974C632.727598 437.718452 586.053854 390.99354 528.436457 390.99354z" p-id="2310" fill="#C5C5C5"></path><path d="M527.521586 263.645411c-273.531948 0-416.963991 199.929901-416.963991 231.591174 0 31.760537 143.433067 231.690438 416.963991 231.690438 273.528878 0 416.960921-199.929901 416.960921-231.690438C944.482507 463.575312 801.050464 263.645411 527.521586 263.645411zM527.521586 673.482827c-102.40921 0-185.374864-79.810681-185.374864-178.248289 0-98.437608 82.964631-178.146978 185.374864-178.146978 102.355996 0 185.271506 79.707323 185.271506 178.146978C712.793092 593.671122 629.877582 673.482827 527.521586 673.482827z" p-id="2311" fill="#C5C5C5"></path></svg>