<?xml version="1.0" standalone="no"?><!DOCTYPE svg PUBLIC "-//W3C//DTD SVG 1.1//EN" "http://www.w3.org/Graphics/SVG/1.1/DTD/svg11.dtd"><svg t="1512034123121" class="icon" style="" viewBox="0 0 1024 1024" version="1.1" xmlns="http://www.w3.org/2000/svg" p-id="2856" xmlns:xlink="http://www.w3.org/1999/xlink" width="32" height="32"><defs><style type="text/css"></style></defs><path d="M870.441 800.154L694.026 623.657c-2.089-2.089-4.342-3.605-6.471-5.284 29.777-45.711 47.145-100.188 47.145-158.925 0-161.218-130.622-291.84-291.881-291.84-161.137 0-291.881 130.622-291.881 291.84 0 161.26 130.744 291.881 291.88 291.881 58.655 0 113.214-17.449 159.007-47.268 1.68 2.253 3.195 4.383 5.243 6.472L783.524 887.03c12.001 12.001 27.73 17.94 43.458 17.94s31.417-5.939 43.459-17.94c23.92-24.003 23.92-62.874 0-86.876M442.86 659.21c-110.101 0-199.68-89.62-199.68-199.72s89.62-199.68 199.68-199.68 199.72 89.62 199.72 199.68-89.661 199.72-199.72 199.72" fill="#707070" p-id="2857"></path></svg>